<svg xmlns="http://www.w3.org/2000/svg" width="32" height="32" viewBox="0 0 8.467 8.467"><circle cx="4.233" cy="4.233" r="4.233" fill="#f0eee6"/><path d="M4.293 6.801q-.655 0-1.218-.126-.563-.133-.979-.434-.415-.308-.641-.826l1.261-.371q.141.252.331.413.197.154.514.231.317.07.817.07.613 0 .93-.133.317-.133.317-.343 0-.161-.155-.273-.155-.112-.592-.161l-1.359-.168q-.944-.119-1.408-.462-.465-.343-.465-.952 0-.539.324-.889.324-.357.915-.532.599-.182 1.394-.182.577 0 1.099.119.528.119.937.406.415.287.655.805l-1.204.371q-.211-.392-.599-.525-.38-.133-1-.133-.521 0-.838.112-.31.105-.31.308 0 .175.169.28.176.105.57.154l1.493.182q.915.112 1.338.469.423.357.423.945 0 .546-.338.917-.338.364-.951.546-.613.182-1.43.182z"/></svg>