<svg xmlns="http://www.w3.org/2000/svg" width="138" height="32" viewBox="0 0 36.513 8.467"><path d="M4.679 8.467q-1.08 0-2.008-.208-.929-.219-1.614-.715Q.371 7.036 0 6.183l2.078-.611q.232.415.546.681.325.254.848.381.522.115 1.347.115 1.01 0 1.532-.219.522-.219.522-.565 0-.265-.255-.45-.255-.185-.975-.265l-2.241-.277Q1.846 4.775 1.08 4.21.313 3.645.313 2.642q0-.888.534-1.465Q1.382.588 2.357.3 3.344 0 4.655 0q.952 0 1.811.196.871.196 1.544.669.685.473 1.08 1.327l-1.985.611q-.348-.646-.987-.865-.627-.219-1.649-.219-.859 0-1.382.185-.511.173-.511.508 0 .288.279.461.29.173.94.254l2.461.3q1.509.185 2.206.773.697.588.697 1.557 0 .9-.557 1.511-.557.6-1.567.9-1.01.3-2.357.3zm5.503-.138V.138h7.662v1.707h-5.34v1.523h4.818v1.638h-4.818v1.615h5.422v1.707zm8.858 0V.138h7.662v1.707h-5.34v1.523h4.818v1.638h-4.818v1.615h5.422v1.707zm8.603 0V6.852l5.573-5.006h-5.573V.138h8.765v1.476l-5.573 5.006h5.677v1.707z"/></svg>